<?xml version="1.0" encoding="UTF-8"?>
<!DOCTYPE svg PUBLIC "-//W3C//DTD SVG 1.0//EN" "http://www.w3.org/TR/2001/REC-SVG-20010904/DTD/svg10.dtd">
<!-- Creator: CorelDRAW X6 -->
<svg xmlns="http://www.w3.org/2000/svg" xml:space="preserve" width="264px" height="264px" version="1.0" shape-rendering="geometricPrecision" text-rendering="geometricPrecision" image-rendering="optimizeQuality" fill-rule="evenodd" clip-rule="evenodd"
viewBox="0 0 264 264"
 xmlns:xlink="http://www.w3.org/1999/xlink">
 <defs>
   <radialGradient id="id0" gradientUnits="userSpaceOnUse" cx="131.055" cy="55.6157" r="93.1913" fx="131.055" fy="55.6157">
    <stop offset="0" stop-color="#5EAB46"/>
    <stop offset="1" stop-color="#568F44"/>
   </radialGradient>
 </defs>
 <rect fill="none" width="264" height="264"/>
 <g id="Layer_x0020_1">
  <metadata id="CorelCorpID_0Corel-Layer"/>
  <path fill="#ADD4A0" d="M132 22c10,0 19,1 28,4 -16,10 -18,36 1,47 -13,18 0,44 22,44 1,0 2,0 3,0 0,2 0,3 0,5 0,15 12,27 27,27 4,0 7,-1 10,-2 -6,22 -21,40 -39,52l-104 0c-26,-17 -44,-47 -44,-81 0,-53 43,-96 96,-96z"/>
  <path fill="#579244" d="M155 219c1,3 1,5 1,8 0,13 -11,24 -24,24 -13,0 -24,-11 -24,-24 0,-3 0,-5 1,-8l46 0z"/>
  <path fill="url(#id0)" d="M132 22c9,0 17,1 25,3 -23,7 -29,40 -6,52 -14,19 -1,46 23,46 1,0 1,0 2,0l0 0c0,2 0,3 0,5 0,16 13,29 29,29 6,0 13,-3 17,-7 -7,21 -21,38 -38,49l-104 0c-26,-17 -44,-47 -44,-81 0,-53 43,-96 96,-96z"/>
  <polygon fill="#FEFEFE" points="80,199 109,219 155,219 184,199 "/>
 </g>
</svg>
